<?xml version="1.0" encoding="UTF-8" ?>
<!DOCTYPE svg PUBLIC "-//W3C//DTD SVG 1.1//EN" "http://www.w3.org/Graphics/SVG/1.1/DTD/svg11.dtd">
<svg width="840pt" height="840pt" viewBox="0 0 840 840" version="1.1" xmlns="http://www.w3.org/2000/svg">
<g id="#000000ff">
<path fill="#000000" opacity="1.00" d=" M 0.00 0.00 L 840.00 0.00 L 840.00 840.00 L 0.00 840.00 L 0.00 0.00 M 484.50 270.74 C 462.75 273.95 444.95 293.94 444.52 315.98 C 444.46 383.99 444.54 451.99 444.48 520.00 C 443.99 532.63 448.41 545.60 457.41 554.63 C 466.33 564.57 479.64 570.21 492.98 569.99 C 575.32 570.01 657.67 570.00 740.01 570.00 C 748.45 569.91 757.07 570.60 765.29 568.21 C 783.85 563.29 798.33 546.17 800.10 527.05 C 800.79 518.38 800.40 509.67 800.50 500.98 C 800.50 440.63 800.51 380.29 800.49 319.94 C 800.56 310.22 798.14 300.36 792.81 292.17 C 786.98 283.36 778.44 276.13 768.35 272.76 C 760.92 269.87 752.83 269.89 744.98 270.00 C 660.99 270.00 577.00 270.00 493.01 270.00 C 490.15 270.04 487.30 270.26 484.50 270.74 M 53.24 349.49 C 52.63 353.96 52.95 358.49 52.89 362.99 C 52.91 406.29 52.84 449.58 52.92 492.88 C 63.66 493.16 74.40 492.96 85.13 492.96 C 85.11 476.02 85.07 459.08 85.15 442.14 C 100.14 442.08 115.15 442.65 130.08 441.23 L 130.73 440.83 C 141.78 438.95 152.51 433.27 159.15 424.07 C 164.85 416.28 167.16 406.54 167.64 397.05 C 167.77 384.47 164.06 371.16 154.66 362.33 C 145.25 353.17 131.81 349.75 118.99 349.55 C 97.07 349.40 75.15 349.53 53.24 349.49 M 173.11 349.73 C 188.38 397.47 204.07 445.08 219.27 492.85 C 231.39 493.17 243.53 493.04 255.65 492.88 C 271.38 445.09 287.38 397.38 303.07 349.58 C 292.01 349.41 280.95 349.46 269.88 349.55 C 259.20 382.92 248.38 416.25 237.86 449.66 C 227.12 416.33 216.78 382.87 206.03 349.54 C 195.06 349.57 184.07 349.21 173.11 349.73 M 316.42 349.54 C 316.19 397.34 316.39 445.15 316.32 492.95 C 327.04 493.15 337.77 492.86 348.49 493.03 C 348.42 476.06 348.46 459.09 348.48 442.12 C 363.37 442.00 378.33 442.85 393.15 441.10 C 404.35 439.18 415.37 433.76 422.24 424.48 C 430.25 413.50 432.38 399.03 430.14 385.85 C 428.08 373.08 420.14 361.22 408.39 355.49 C 396.68 349.12 382.92 349.42 369.98 349.49 C 352.13 349.52 334.27 349.41 316.42 349.54 Z" />
<path fill="#000000" opacity="1.00" d=" M 85.18 416.65 C 85.10 402.70 85.02 388.74 85.22 374.80 C 95.17 374.91 105.14 374.59 115.09 375.02 C 120.99 375.61 127.35 376.93 131.53 381.49 C 137.29 387.93 137.77 397.85 134.55 405.58 C 131.33 412.62 123.49 415.94 116.15 416.42 C 105.83 416.85 95.50 416.54 85.18 416.65 Z" />
<path fill="#000000" opacity="1.00" d=" M 348.49 416.67 C 348.44 402.72 348.44 388.77 348.49 374.81 C 358.35 374.89 368.22 374.62 378.07 374.99 C 383.53 375.53 389.43 376.52 393.64 380.34 C 399.42 385.25 400.79 393.72 399.35 400.83 C 398.61 405.38 396.11 409.64 392.30 412.27 C 387.83 415.27 382.37 416.45 377.05 416.53 C 367.53 416.77 358.01 416.55 348.49 416.67 Z" />
</g>
<g id="#ce1a19ff">
<path fill="#ce1a19" opacity="1.00" d=" M 484.50 270.74 C 487.30 270.26 490.15 270.04 493.01 270.00 C 577.00 270.00 660.99 270.00 744.98 270.00 C 752.83 269.89 760.92 269.87 768.35 272.76 C 778.44 276.13 786.98 283.36 792.81 292.17 C 798.14 300.36 800.56 310.22 800.49 319.94 C 800.51 380.29 800.50 440.63 800.50 500.98 C 800.40 509.67 800.79 518.38 800.10 527.05 C 798.33 546.17 783.85 563.29 765.29 568.21 C 757.07 570.60 748.45 569.91 740.01 570.00 C 657.67 570.00 575.32 570.01 492.98 569.99 C 479.64 570.21 466.33 564.57 457.41 554.63 C 448.41 545.60 443.99 532.63 444.48 520.00 C 444.54 451.99 444.46 383.99 444.52 315.98 C 444.95 293.94 462.75 273.95 484.50 270.74 M 469.81 349.61 C 469.66 397.37 469.74 445.13 469.77 492.90 C 491.82 493.19 513.88 492.87 535.94 493.04 C 547.35 493.24 559.14 491.81 569.37 486.46 C 579.75 481.29 587.73 471.19 589.44 459.62 C 591.03 449.22 589.93 437.89 584.05 428.91 C 579.65 422.08 572.46 417.40 564.73 415.17 C 569.37 412.53 574.02 409.56 577.25 405.21 C 583.31 397.61 584.11 387.19 582.83 377.89 C 581.72 369.06 576.75 360.46 568.74 356.23 C 558.59 350.27 546.47 349.92 535.04 349.48 C 513.29 349.57 491.55 349.33 469.81 349.61 M 734.18 357.89 C 733.71 368.27 733.99 378.67 734.01 389.06 C 728.29 389.13 722.57 389.06 716.85 389.12 C 716.77 395.60 716.80 402.08 716.84 408.56 C 722.54 408.73 728.25 408.60 733.96 408.65 C 733.93 427.75 733.96 446.86 733.94 465.96 C 733.94 472.34 734.11 479.44 738.33 484.65 C 743.47 491.61 752.75 493.57 760.92 493.83 C 768.59 493.68 776.34 494.40 783.93 493.07 C 783.90 485.49 784.01 477.92 783.87 470.35 C 778.76 471.01 773.45 471.86 768.42 470.35 C 762.95 469.09 763.43 462.49 763.17 458.11 C 763.15 441.64 763.10 425.17 763.19 408.70 C 770.09 408.59 777.00 408.64 783.90 408.67 C 783.96 402.14 783.92 395.62 783.93 389.09 C 777.02 389.07 770.12 389.13 763.22 389.06 C 763.09 378.77 763.12 368.49 763.20 358.21 C 753.55 357.46 743.85 358.03 734.18 357.89 M 627.22 395.30 C 615.47 403.10 607.87 416.22 605.58 430.00 C 603.28 444.10 605.03 459.23 612.28 471.72 C 619.32 484.49 632.84 492.88 647.12 494.92 C 660.01 496.49 673.79 495.72 685.33 489.23 C 696.46 483.53 703.26 472.00 706.69 460.35 C 698.15 460.26 689.60 460.27 681.06 460.34 C 678.19 467.24 671.30 471.85 664.15 473.29 C 657.34 474.06 649.96 473.86 644.00 470.06 C 636.65 465.67 633.98 456.47 634.11 448.37 C 658.84 448.43 683.58 448.47 708.31 448.35 C 709.47 434.42 706.67 419.87 699.16 407.95 C 693.24 398.35 683.60 391.19 672.76 388.11 C 657.48 384.20 640.32 386.16 627.22 395.30 Z" />
<path fill="#ce1a19" opacity="1.00" d=" M 501.86 375.69 C 502.05 375.49 502.43 375.07 502.62 374.87 C 512.75 374.75 522.89 374.78 533.03 374.87 C 539.65 374.97 547.43 376.85 550.62 383.32 C 553.50 389.93 552.68 399.07 546.55 403.62 C 542.11 406.87 536.39 407.40 531.05 407.34 C 521.32 407.31 511.58 407.39 501.84 407.29 C 501.79 396.76 501.70 386.22 501.86 375.69 Z" />
<path fill="#ce1a19" opacity="1.00" d=" M 642.62 412.77 C 649.06 407.87 657.95 407.58 665.47 409.65 C 674.05 412.46 677.49 421.76 679.18 429.81 C 664.13 429.68 649.07 429.75 634.01 429.77 C 634.23 423.22 637.24 416.65 642.62 412.77 Z" />
<path fill="#ce1a19" opacity="1.00" d=" M 501.83 429.66 C 513.91 429.66 526.00 429.57 538.09 429.70 C 545.37 429.91 553.69 433.14 556.42 440.47 C 558.98 447.55 558.82 456.63 553.28 462.28 C 548.17 467.12 540.70 467.91 533.98 468.06 C 523.26 467.93 512.53 468.27 501.81 467.86 C 501.78 455.13 501.76 442.39 501.83 429.66 Z" />
</g>
<g id="#ffffffff">
<path fill="#ffffff" opacity="1.00" d=" M 53.24 349.49 C 75.15 349.53 97.07 349.40 118.99 349.55 C 131.81 349.75 145.25 353.17 154.66 362.33 C 164.06 371.16 167.77 384.47 167.64 397.05 C 167.16 406.54 164.85 416.28 159.15 424.07 C 152.51 433.27 141.78 438.95 130.73 440.83 L 130.08 441.23 C 115.15 442.65 100.14 442.08 85.15 442.14 C 85.07 459.08 85.11 476.02 85.13 492.96 C 74.40 492.96 63.66 493.16 52.92 492.88 C 52.84 449.58 52.91 406.29 52.89 362.99 C 52.95 358.49 52.63 353.96 53.24 349.49 M 85.18 416.65 C 95.50 416.54 105.83 416.85 116.15 416.42 C 123.49 415.94 131.33 412.62 134.55 405.58 C 137.77 397.85 137.29 387.93 131.53 381.49 C 127.35 376.93 120.99 375.61 115.09 375.02 C 105.14 374.59 95.17 374.91 85.22 374.80 C 85.02 388.74 85.10 402.70 85.18 416.65 Z" />
<path fill="#ffffff" opacity="1.00" d=" M 173.11 349.73 C 184.07 349.21 195.06 349.57 206.03 349.54 C 216.78 382.87 227.12 416.33 237.86 449.66 C 248.38 416.25 259.20 382.92 269.88 349.55 C 280.95 349.46 292.01 349.41 303.07 349.58 C 287.38 397.38 271.38 445.09 255.65 492.88 C 243.53 493.04 231.39 493.17 219.27 492.85 C 204.07 445.08 188.38 397.47 173.11 349.73 Z" />
<path fill="#ffffff" opacity="1.00" d=" M 316.42 349.54 C 334.27 349.41 352.13 349.52 369.98 349.49 C 382.92 349.42 396.68 349.12 408.39 355.49 C 420.14 361.22 428.08 373.08 430.14 385.85 C 432.38 399.03 430.25 413.50 422.24 424.48 C 415.37 433.76 404.35 439.18 393.15 441.10 C 378.33 442.85 363.37 442.00 348.48 442.12 C 348.46 459.09 348.42 476.06 348.49 493.03 C 337.77 492.86 327.04 493.15 316.32 492.95 C 316.39 445.15 316.19 397.34 316.42 349.54 M 348.49 416.67 C 358.01 416.55 367.53 416.77 377.05 416.53 C 382.37 416.45 387.83 415.27 392.30 412.27 C 396.11 409.64 398.61 405.38 399.35 400.83 C 400.79 393.72 399.42 385.25 393.64 380.34 C 389.43 376.52 383.53 375.53 378.07 374.99 C 368.22 374.62 358.35 374.89 348.49 374.81 C 348.44 388.77 348.44 402.72 348.49 416.67 Z" />
<path fill="#ffffff" opacity="1.00" d=" M 469.81 349.61 C 491.55 349.33 513.29 349.57 535.04 349.48 C 546.47 349.92 558.59 350.27 568.74 356.23 C 576.75 360.46 581.72 369.06 582.83 377.89 C 584.11 387.19 583.31 397.61 577.25 405.21 C 574.02 409.56 569.37 412.53 564.73 415.17 C 572.46 417.40 579.65 422.08 584.05 428.91 C 589.93 437.89 591.03 449.22 589.44 459.62 C 587.73 471.19 579.75 481.29 569.37 486.46 C 559.14 491.81 547.35 493.24 535.94 493.04 C 513.88 492.87 491.82 493.19 469.77 492.90 C 469.74 445.13 469.66 397.37 469.81 349.61 M 501.86 375.69 C 501.70 386.22 501.79 396.76 501.84 407.29 C 511.58 407.39 521.32 407.31 531.05 407.34 C 536.39 407.40 542.11 406.87 546.55 403.62 C 552.68 399.07 553.50 389.93 550.62 383.32 C 547.43 376.85 539.65 374.97 533.03 374.87 C 522.89 374.78 512.75 374.75 502.62 374.87 C 502.43 375.07 502.05 375.49 501.86 375.69 M 501.83 429.66 C 501.76 442.39 501.78 455.13 501.81 467.86 C 512.53 468.27 523.26 467.93 533.98 468.06 C 540.70 467.91 548.17 467.12 553.28 462.28 C 558.82 456.63 558.98 447.55 556.42 440.47 C 553.69 433.14 545.37 429.91 538.09 429.70 C 526.00 429.57 513.91 429.66 501.83 429.66 Z" />
<path fill="#ffffff" opacity="1.00" d=" M 734.18 357.89 C 743.85 358.03 753.55 357.46 763.20 358.21 C 763.12 368.49 763.09 378.77 763.22 389.06 C 770.12 389.13 777.02 389.07 783.93 389.09 C 783.92 395.62 783.96 402.14 783.90 408.67 C 777.00 408.64 770.09 408.59 763.19 408.70 C 763.10 425.17 763.15 441.64 763.17 458.11 C 763.43 462.49 762.95 469.09 768.42 470.35 C 773.45 471.86 778.76 471.01 783.87 470.35 C 784.01 477.92 783.90 485.49 783.93 493.07 C 776.34 494.40 768.59 493.68 760.92 493.83 C 752.75 493.57 743.47 491.61 738.33 484.65 C 734.11 479.44 733.94 472.34 733.94 465.96 C 733.96 446.86 733.93 427.75 733.96 408.65 C 728.25 408.60 722.54 408.73 716.84 408.56 C 716.80 402.08 716.77 395.60 716.85 389.12 C 722.57 389.06 728.29 389.13 734.01 389.06 C 733.99 378.67 733.71 368.27 734.18 357.89 Z" />
<path fill="#ffffff" opacity="1.00" d=" M 627.22 395.30 C 640.32 386.16 657.48 384.20 672.76 388.11 C 683.60 391.19 693.24 398.35 699.16 407.95 C 706.67 419.87 709.47 434.42 708.31 448.35 C 683.58 448.47 658.84 448.43 634.11 448.37 C 633.98 456.47 636.65 465.67 644.00 470.06 C 649.96 473.86 657.34 474.06 664.15 473.29 C 671.30 471.85 678.19 467.24 681.06 460.34 C 689.60 460.27 698.15 460.26 706.69 460.35 C 703.26 472.00 696.46 483.53 685.33 489.23 C 673.79 495.72 660.01 496.49 647.12 494.92 C 632.84 492.88 619.32 484.49 612.28 471.72 C 605.03 459.23 603.28 444.10 605.58 430.00 C 607.87 416.22 615.47 403.10 627.22 395.30 M 642.62 412.77 C 637.24 416.65 634.23 423.22 634.01 429.77 C 649.07 429.75 664.13 429.68 679.18 429.81 C 677.49 421.76 674.05 412.46 665.47 409.65 C 657.95 407.58 649.06 407.87 642.62 412.77 Z" />
</g>
</svg>
